<svg xmlns="http://www.w3.org/2000/svg" width="64" height="64" fill="none" viewBox="0 0 64 64"><rect width="3.288" height="53.743" fill="#BB8F06" rx="1.644"/><rect width="3.288" height="58.446" x="5.519" fill="#BB8F06" rx="1.644"/><rect width="3.288" height="63.82" x="11.038" fill="#BB8F06" rx="1.644"/><rect width="3.288" height="63.82" x="16.558" fill="#BB8F06" rx="1.644"/><rect width="3.288" height="22.841" x="22.077" fill="#BB8F06" rx="1.644"/><rect width="3.288" height="22.841" x="27.596" fill="#BB8F06" rx="1.644"/><rect width="3.288" height="27.543" x="33.115" fill="#BB8F06" rx="1.644"/><rect width="3.288" height="32.246" x="38.635" fill="#BB8F06" rx="1.644"/><rect width="3.288" height="22.841" x="44.154" fill="#BB8F06" rx="1.644"/><rect width="3.348" height="16.742" x="49.556" y="6.027" fill="#BB8F06" rx="1.674"/><rect width="3.288" height="53.743" x="55.193" y="10.257" fill="#BB8F06" rx="1.644"/><rect width="3.288" height="49.041" x="60.712" y="14.815" fill="#BB8F06" rx="1.644"/><rect width="3.347" height="10.257" x="22.312" y="53.563" fill="#BB8F06" rx="1.673"/><rect width="3.288" height="10.077" x="27.89" y="53.563" fill="#BB8F06" rx="1.644"/><rect width="3.347" height="20.514" x="33.468" y="43.306" fill="#BB8F06" rx="1.673"/><rect width="3.347" height="15.955" x="39.046" y="47.865" fill="#BB8F06" rx="1.673"/><rect width="3.347" height="10.257" x="44.389" y="53.563" fill="#BB8F06" rx="1.673"/><rect width="3.347" height="10.257" x="49.967" y="53.563" fill="#BB8F06" rx="1.673"/></svg>